Coordinates
version=1
nRows=9
nColumns=24
inDegrees=yes

Units are S.I. units (second, meters, Newtons, ...)
Angles are in degrees.

endheader
time	pelvis_tilt	pelvis_list	pelvis_rotation	pelvis_tx	pelvis_ty	pelvis_tz	hip_flexion_r	hip_adduction_r	hip_rotation_r	knee_angle_r	ankle_angle_r	subtalar_angle_r	mtp_angle_r	hip_flexion_l	hip_adduction_l	hip_rotation_l	knee_angle_l	ankle_angle_l	subtalar_angle_l	mtp_angle_l	lumbar_extension	lumbar_bending	lumbar_rotation
      0.01000000	     44.60378072	     -3.22296710	     -0.40898292	      0.57117788	      1.08543516	     -0.34040925	     27.80087013	     -7.97604548	     -7.92555103	    -73.36506009	    -28.47030041	    -19.14826077	      0.00000000	     31.41199798	    -13.89153199	     -6.37730012	    -19.29316871	    -39.86243809	      7.41173892	      0.00000000	      0.00000000	      0.00000000	      0.00000000
      0.02000000	     44.65070280	     -3.21533487	     -0.42081847	      0.57108928	      1.08534959	     -0.34048998	     27.77045691	     -7.97489745	     -7.90723453	    -73.37877769	    -28.46350465	    -19.14065280	      0.00000000	     31.37224762	    -13.88711705	     -6.38561251	    -19.30031159	    -39.85258029	      7.40158655	      0.00000000	      0.00000000	      0.00000000	      0.00000000
      0.03000000	     44.69607344	     -3.21020838	     -0.43133896	      0.57100867	      1.08527390	     -0.34055405	     27.74009490	     -7.97502908	     -7.88890929	    -73.38877362	    -28.45670142	    -19.13358079	      0.00000000	     31.33348665	    -13.88320655	     -6.39309152	    -19.30542412	    -39.84377435	      7.39074283	      0.00000000	      0.00000000	      0.00000000	      0.00000000
      0.04000000	     44.73500264	     -3.20633645	     -0.43918681	      0.57095374	      1.08523652	     -0.34058471	     27.71035876	     -7.97604542	     -7.87289313	    -73.39388903	    -28.44998792	    -19.12732969	      0.00000000	     31.29689682	    -13.88056404	     -6.39926819	    -19.30751848	    -39.83674855	      7.37927569	      0.00000000	      0.00000000	      0.00000000	      0.00000000
      0.05000000	     44.76407034	     -3.20305259	     -0.44359182	      0.57092844	      1.08524662	     -0.34058979	     27.68274654	     -7.97735172	     -7.86119102	    -73.39373596	    -28.44350706	    -19.12207903	      0.00000000	     31.26434739	    -13.87934371	     -6.40361693	    -19.30601961	    -39.83235586	      7.36740876	      0.00000000	      0.00000000	      0.00000000	      0.00000000
      0.06000000	     44.78316693	     -3.20045158	     -0.44481405	      0.57092235	      1.08528713	     -0.34058831	     27.65937891	     -7.97836607	     -7.85456559	    -73.38940878	    -28.43741790	    -19.11771249	      0.00000000	     31.23781284	    -13.87898767	     -6.40579672	    -19.30131274	    -39.83123427	      7.35545618	      0.00000000	      0.00000000	      0.00000000	      0.00000000
      0.07000000	     44.79462765	     -3.19891660	     -0.44386916	      0.57092249	      1.08532552	     -0.34058775	     27.64204140	     -7.97882854	     -7.85234146	    -73.38324801	    -28.43190973	    -19.11377031	      0.00000000	     31.21857303	    -13.87883475	     -6.40582407	    -19.29476346	    -39.83354209	      7.34366455	      0.00000000	      0.00000000	      0.00000000	      0.00000000
      0.08000000	     44.80105299	     -3.19863413	     -0.44201823	      0.57092210	      1.08533960	     -0.34058598	     27.63142173	     -7.97887770	     -7.85288183	    -73.37778404	    -28.42718544	    -19.10959355	      0.00000000	     31.20669488	    -13.87870644	     -6.40410271	    -19.28820955	    -39.83888270	      7.33206496	      0.00000000	      0.00000000	      0.00000000	      0.00000000
      0.09000000	     44.80388506	     -3.19942321	     -0.44039430	      0.57092159	      1.08533240	     -0.34058422	     27.62709335	     -7.97883230	     -7.85439491	    -73.37460364	    -28.42335537	    -19.10464176	      0.00000000	     31.20112498	    -13.87891765	     -6.40131479	    -19.28320802	    -39.84645921	      7.32043281	      0.00000000	      0.00000000	      0.00000000	      0.00000000
